# Blender v2.91.0 OBJ File: ''
# www.blender.org
mtllib CilindrFinisn.mtl
v 0.000000 -1.000000 -1.000000
v -0.000000 1.000000 -0.818962
v 0.195090 -1.000000 -0.980785
v 0.159772 1.000000 -0.803226
v 0.382683 -1.000000 -0.923880
v 0.313403 1.000000 -0.756622
v 0.555570 -1.000000 -0.831470
v 0.454991 1.000000 -0.680942
v 0.707107 -1.000000 -0.707107
v 0.579094 1.000000 -0.579094
v 0.831470 -1.000000 -0.555570
v 0.680942 1.000000 -0.454991
v 0.923880 -1.000000 -0.382683
v 0.756622 1.000000 -0.313403
v 0.980785 -1.000000 -0.195090
v 0.803226 1.000000 -0.159772
v 1.000000 -1.000000 -0.000000
v 0.818962 1.000000 -0.000000
v 0.980785 -1.000000 0.195090
v 0.803226 1.000000 0.159771
v 0.923880 -1.000000 0.382683
v 0.756622 1.000000 0.313403
v 0.831470 -1.000000 0.555570
v 0.680942 1.000000 0.454991
v 0.707107 -1.000000 0.707107
v 0.579094 1.000000 0.579094
v 0.555570 -1.000000 0.831470
v 0.454991 1.000000 0.680942
v 0.382683 -1.000000 0.923880
v 0.313403 1.000000 0.756622
v 0.195090 -1.000000 0.980785
v 0.159771 1.000000 0.803226
v -0.000000 -1.000000 1.000000
v -0.000000 1.000000 0.818962
v -0.195091 -1.000000 0.980785
v -0.159772 1.000000 0.803226
v -0.382684 -1.000000 0.923879
v -0.313404 1.000000 0.756622
v -0.555571 -1.000000 0.831469
v -0.454991 1.000000 0.680942
v -0.707107 -1.000000 0.707106
v -0.579094 1.000000 0.579093
v -0.831470 -1.000000 0.555570
v -0.680943 1.000000 0.454991
v -0.923880 -1.000000 0.382683
v -0.756623 1.000000 0.313403
v -0.980785 -1.000000 0.195089
v -0.803226 1.000000 0.159771
v -1.000000 -1.000000 -0.000001
v -0.818962 1.000000 -0.000001
v -0.980785 -1.000000 -0.195091
v -0.803226 1.000000 -0.159772
v -0.923879 -1.000000 -0.382684
v -0.756622 1.000000 -0.313404
v -0.831469 -1.000000 -0.555571
v -0.680942 1.000000 -0.454992
v -0.707106 -1.000000 -0.707108
v -0.579093 1.000000 -0.579094
v -0.555569 -1.000000 -0.831470
v -0.454990 1.000000 -0.680943
v -0.382682 -1.000000 -0.923880
v -0.313402 1.000000 -0.756623
v -0.195089 -1.000000 -0.980786
v -0.159770 1.000000 -0.803226
v 0.195090 1.000000 -0.980785
v 0.000000 1.000000 -1.000000
v 0.382683 1.000000 -0.923880
v 0.555570 1.000000 -0.831470
v 0.707107 1.000000 -0.707107
v 0.831470 1.000000 -0.555570
v 0.923880 1.000000 -0.382683
v 0.980785 1.000000 -0.195090
v 1.000000 1.000000 -0.000000
v 0.980785 1.000000 0.195090
v 0.923880 1.000000 0.382683
v 0.831470 1.000000 0.555570
v 0.707107 1.000000 0.707107
v 0.555570 1.000000 0.831470
v 0.382683 1.000000 0.923880
v 0.195090 1.000000 0.980785
v -0.000000 1.000000 1.000000
v -0.195091 1.000000 0.980785
v -0.382684 1.000000 0.923879
v -0.555571 1.000000 0.831469
v -0.707107 1.000000 0.707106
v -0.831470 1.000000 0.555570
v -0.923880 1.000000 0.382683
v -0.980785 1.000000 0.195089
v -1.000000 1.000000 -0.000001
v -0.980785 1.000000 -0.195091
v -0.923879 1.000000 -0.382684
v -0.831469 1.000000 -0.555571
v -0.707106 1.000000 -0.707108
v -0.555569 1.000000 -0.831470
v -0.382682 1.000000 -0.923880
v -0.195089 1.000000 -0.980786
v -0.000000 0.487018 -0.818962
v 0.159772 0.487018 -0.803226
v 0.313403 0.487018 -0.756622
v 0.454991 0.487018 -0.680942
v 0.579094 0.487018 -0.579094
v 0.680942 0.487018 -0.454991
v 0.756622 0.487018 -0.313403
v 0.803226 0.487018 -0.159772
v 0.818962 0.487018 -0.000000
v 0.803226 0.487018 0.159771
v 0.756622 0.487018 0.313403
v 0.680942 0.487018 0.454991
v 0.579094 0.487018 0.579094
v 0.454991 0.487018 0.680942
v 0.313403 0.487018 0.756622
v 0.159771 0.487018 0.803226
v -0.000000 0.487018 0.818962
v -0.159772 0.487018 0.803226
v -0.313404 0.487018 0.756622
v -0.454991 0.487018 0.680942
v -0.579094 0.487018 0.579093
v -0.680942 0.487018 0.454991
v -0.756623 0.487018 0.313403
v -0.803226 0.487018 0.159771
v -0.818962 0.487018 -0.000001
v -0.803226 0.487018 -0.159772
v -0.756622 0.487018 -0.313404
v -0.680942 0.487018 -0.454992
v -0.579093 0.487018 -0.579094
v -0.454990 0.487018 -0.680943
v -0.313402 0.487018 -0.756623
v -0.159770 0.487018 -0.803226
vt 1.000000 0.500000
vt 1.000000 1.000000
vt 0.968750 1.000000
vt 0.968750 0.500000
vt 0.937500 1.000000
vt 0.937500 0.500000
vt 0.906250 1.000000
vt 0.906250 0.500000
vt 0.875000 1.000000
vt 0.875000 0.500000
vt 0.843750 1.000000
vt 0.843750 0.500000
vt 0.812500 1.000000
vt 0.812500 0.500000
vt 0.781250 1.000000
vt 0.781250 0.500000
vt 0.750000 1.000000
vt 0.750000 0.500000
vt 0.718750 1.000000
vt 0.718750 0.500000
vt 0.687500 1.000000
vt 0.687500 0.500000
vt 0.656250 1.000000
vt 0.656250 0.500000
vt 0.625000 1.000000
vt 0.625000 0.500000
vt 0.593750 1.000000
vt 0.593750 0.500000
vt 0.562500 1.000000
vt 0.562500 0.500000
vt 0.531250 1.000000
vt 0.531250 0.500000
vt 0.500000 1.000000
vt 0.500000 0.500000
vt 0.468750 1.000000
vt 0.468750 0.500000
vt 0.437500 1.000000
vt 0.437500 0.500000
vt 0.406250 1.000000
vt 0.406250 0.500000
vt 0.375000 1.000000
vt 0.375000 0.500000
vt 0.343750 1.000000
vt 0.343750 0.500000
vt 0.312500 1.000000
vt 0.312500 0.500000
vt 0.281250 1.000000
vt 0.281250 0.500000
vt 0.250000 1.000000
vt 0.250000 0.500000
vt 0.218750 1.000000
vt 0.218750 0.500000
vt 0.187500 1.000000
vt 0.187500 0.500000
vt 0.156250 1.000000
vt 0.156250 0.500000
vt 0.125000 1.000000
vt 0.125000 0.500000
vt 0.093750 1.000000
vt 0.093750 0.500000
vt 0.062500 1.000000
vt 0.062500 0.500000
vt 0.068411 0.325217
vt 0.057226 0.288345
vt 0.057226 0.288345
vt 0.068411 0.325217
vt 0.031250 1.000000
vt 0.031250 0.500000
vt 0.000000 1.000000
vt 0.000000 0.500000
vt 0.750000 0.490000
vt 0.796822 0.485388
vt 0.841844 0.471731
vt 0.883337 0.449553
vt 0.919706 0.419706
vt 0.949553 0.383337
vt 0.971731 0.341844
vt 0.985388 0.296822
vt 0.990000 0.250000
vt 0.985388 0.203178
vt 0.971731 0.158156
vt 0.949553 0.116663
vt 0.919706 0.080294
vt 0.883337 0.050447
vt 0.841844 0.028269
vt 0.796822 0.014612
vt 0.750000 0.010000
vt 0.703178 0.014612
vt 0.658156 0.028269
vt 0.616663 0.050447
vt 0.580294 0.080294
vt 0.550447 0.116663
vt 0.528269 0.158156
vt 0.514611 0.203179
vt 0.510000 0.250000
vt 0.514612 0.296822
vt 0.528269 0.341844
vt 0.550447 0.383337
vt 0.580295 0.419706
vt 0.616663 0.449553
vt 0.658156 0.471731
vt 0.703179 0.485389
vt 0.250000 0.446551
vt 0.288345 0.442774
vt 0.296822 0.485388
vt 0.250000 0.490000
vt 0.325217 0.431589
vt 0.341844 0.471731
vt 0.359198 0.413426
vt 0.383337 0.449553
vt 0.388982 0.388983
vt 0.419706 0.419706
vt 0.413426 0.359198
vt 0.449553 0.383337
vt 0.431589 0.325217
vt 0.471731 0.341844
vt 0.442774 0.288345
vt 0.485388 0.296822
vt 0.446551 0.250000
vt 0.490000 0.250000
vt 0.442774 0.211655
vt 0.485388 0.203178
vt 0.431589 0.174783
vt 0.471731 0.158156
vt 0.413426 0.140802
vt 0.449553 0.116663
vt 0.388982 0.111017
vt 0.419706 0.080294
vt 0.359198 0.086574
vt 0.383337 0.050447
vt 0.325217 0.068411
vt 0.341844 0.028269
vt 0.288345 0.057226
vt 0.296822 0.014612
vt 0.250000 0.053449
vt 0.250000 0.010000
vt 0.211655 0.057226
vt 0.203178 0.014612
vt 0.174783 0.068411
vt 0.158156 0.028269
vt 0.140802 0.086574
vt 0.116663 0.050447
vt 0.111017 0.111018
vt 0.080294 0.080294
vt 0.086574 0.140802
vt 0.050447 0.116663
vt 0.068411 0.174783
vt 0.028269 0.158156
vt 0.057226 0.211655
vt 0.014611 0.203179
vt 0.053449 0.250000
vt 0.010000 0.250000
vt 0.014612 0.296822
vt 0.028269 0.341844
vt 0.086574 0.359198
vt 0.050447 0.383337
vt 0.111018 0.388983
vt 0.080295 0.419706
vt 0.140802 0.413426
vt 0.116663 0.449553
vt 0.174783 0.431589
vt 0.158156 0.471731
vt 0.211655 0.442774
vt 0.203179 0.485389
vt 0.388982 0.111017
vt 0.359198 0.086574
vt 0.086574 0.359198
vt 0.325217 0.068411
vt 0.250000 0.446551
vt 0.288345 0.442774
vt 0.111018 0.388983
vt 0.288345 0.057226
vt 0.325217 0.431589
vt 0.140802 0.413426
vt 0.250000 0.053449
vt 0.359198 0.413426
vt 0.174783 0.431589
vt 0.211655 0.057226
vt 0.388982 0.388983
vt 0.211655 0.442774
vt 0.174783 0.068411
vt 0.413426 0.359198
vt 0.140802 0.086574
vt 0.431589 0.325217
vt 0.111017 0.111018
vt 0.442774 0.288345
vt 0.086574 0.140802
vt 0.446551 0.250000
vt 0.068411 0.174783
vt 0.442774 0.211655
vt 0.057226 0.211655
vt 0.431589 0.174783
vt 0.053449 0.250000
vt 0.413426 0.140802
vn 0.0980 0.0000 -0.9952
vn 0.2903 0.0000 -0.9569
vn 0.4714 0.0000 -0.8819
vn 0.6344 0.0000 -0.7730
vn 0.7730 0.0000 -0.6344
vn 0.8819 0.0000 -0.4714
vn 0.9569 0.0000 -0.2903
vn 0.9952 0.0000 -0.0980
vn 0.9952 0.0000 0.0980
vn 0.9569 0.0000 0.2903
vn 0.8819 0.0000 0.4714
vn 0.7730 0.0000 0.6344
vn 0.6344 0.0000 0.7730
vn 0.4714 0.0000 0.8819
vn 0.2903 0.0000 0.9569
vn 0.0980 0.0000 0.9952
vn -0.0980 0.0000 0.9952
vn -0.2903 0.0000 0.9569
vn -0.4714 0.0000 0.8819
vn -0.6344 0.0000 0.7730
vn -0.7730 0.0000 0.6344
vn -0.8819 0.0000 0.4714
vn -0.9569 0.0000 0.2903
vn -0.9952 0.0000 0.0980
vn -0.9952 0.0000 -0.0980
vn -0.9569 0.0000 -0.2903
vn -0.8819 0.0000 -0.4714
vn -0.7730 0.0000 -0.6344
vn -0.6344 0.0000 -0.7730
vn -0.4714 0.0000 -0.8819
vn -0.2903 0.0000 -0.9569
vn -0.0980 0.0000 -0.9952
vn 0.0000 -1.0000 -0.0000
vn 0.0000 1.0000 0.0000
usemtl None
s off
f 1/1/1 66/2/1 65/3/1 3/4/1
f 3/4/2 65/3/2 67/5/2 5/6/2
f 5/6/3 67/5/3 68/7/3 7/8/3
f 7/8/4 68/7/4 69/9/4 9/10/4
f 9/10/5 69/9/5 70/11/5 11/12/5
f 11/12/6 70/11/6 71/13/6 13/14/6
f 13/14/7 71/13/7 72/15/7 15/16/7
f 15/16/8 72/15/8 73/17/8 17/18/8
f 17/18/9 73/17/9 74/19/9 19/20/9
f 19/20/10 74/19/10 75/21/10 21/22/10
f 21/22/11 75/21/11 76/23/11 23/24/11
f 23/24/12 76/23/12 77/25/12 25/26/12
f 25/26/13 77/25/13 78/27/13 27/28/13
f 27/28/14 78/27/14 79/29/14 29/30/14
f 29/30/15 79/29/15 80/31/15 31/32/15
f 31/32/16 80/31/16 81/33/16 33/34/16
f 33/34/17 81/33/17 82/35/17 35/36/17
f 35/36/18 82/35/18 83/37/18 37/38/18
f 37/38/19 83/37/19 84/39/19 39/40/19
f 39/40/20 84/39/20 85/41/20 41/42/20
f 41/42/21 85/41/21 86/43/21 43/44/21
f 43/44/22 86/43/22 87/45/22 45/46/22
f 45/46/23 87/45/23 88/47/23 47/48/23
f 47/48/24 88/47/24 89/49/24 49/50/24
f 49/50/25 89/49/25 90/51/25 51/52/25
f 51/52/26 90/51/26 91/53/26 53/54/26
f 53/54/27 91/53/27 92/55/27 55/56/27
f 55/56/28 92/55/28 93/57/28 57/58/28
f 57/58/29 93/57/29 94/59/29 59/60/29
f 59/60/30 94/59/30 95/61/30 61/62/30
f 54/63/10 52/64/10 122/65/10 123/66/10
f 61/62/31 95/61/31 96/67/31 63/68/31
f 63/68/32 96/67/32 66/69/32 1/70/32
f 1/71/33 3/72/33 5/73/33 7/74/33 9/75/33 11/76/33 13/77/33 15/78/33 17/79/33 19/80/33 21/81/33 23/82/33 25/83/33 27/84/33 29/85/33 31/86/33 33/87/33 35/88/33 37/89/33 39/90/33 41/91/33 43/92/33 45/93/33 47/94/33 49/95/33 51/96/33 53/97/33 55/98/33 57/99/33 59/100/33 61/101/33 63/102/33
f 2/103/34 4/104/34 65/105/34 66/106/34
f 4/104/34 6/107/34 67/108/34 65/105/34
f 6/107/34 8/109/34 68/110/34 67/108/34
f 8/109/34 10/111/34 69/112/34 68/110/34
f 10/111/34 12/113/34 70/114/34 69/112/34
f 12/113/34 14/115/34 71/116/34 70/114/34
f 14/115/34 16/117/34 72/118/34 71/116/34
f 16/117/34 18/119/34 73/120/34 72/118/34
f 18/119/34 20/121/34 74/122/34 73/120/34
f 20/121/34 22/123/34 75/124/34 74/122/34
f 22/123/34 24/125/34 76/126/34 75/124/34
f 24/125/34 26/127/34 77/128/34 76/126/34
f 26/127/34 28/129/34 78/130/34 77/128/34
f 28/129/34 30/131/34 79/132/34 78/130/34
f 30/131/34 32/133/34 80/134/34 79/132/34
f 32/133/34 34/135/34 81/136/34 80/134/34
f 34/135/34 36/137/34 82/138/34 81/136/34
f 36/137/34 38/139/34 83/140/34 82/138/34
f 38/139/34 40/141/34 84/142/34 83/140/34
f 40/141/34 42/143/34 85/144/34 84/142/34
f 42/143/34 44/145/34 86/146/34 85/144/34
f 44/145/34 46/147/34 87/148/34 86/146/34
f 46/147/34 48/149/34 88/150/34 87/148/34
f 48/149/34 50/151/34 89/152/34 88/150/34
f 50/151/34 52/64/34 90/153/34 89/152/34
f 52/64/34 54/63/34 91/154/34 90/153/34
f 54/63/34 56/155/34 92/156/34 91/154/34
f 56/155/34 58/157/34 93/158/34 92/156/34
f 58/157/34 60/159/34 94/160/34 93/158/34
f 60/159/34 62/161/34 95/162/34 94/160/34
f 62/161/34 64/163/34 96/164/34 95/162/34
f 64/163/34 2/103/34 66/106/34 96/164/34
f 28/129/29 26/127/29 109/165/29 110/166/29
f 56/155/11 54/63/11 123/66/11 124/167/11
f 30/131/30 28/129/30 110/166/30 111/168/30
f 4/104/17 2/103/17 97/169/17 98/170/17
f 58/157/12 56/155/12 124/167/12 125/171/12
f 32/133/31 30/131/31 111/168/31 112/172/31
f 6/107/18 4/104/18 98/170/18 99/173/18
f 60/159/13 58/157/13 125/171/13 126/174/13
f 34/135/32 32/133/32 112/172/32 113/175/32
f 8/109/19 6/107/19 99/173/19 100/176/19
f 62/161/14 60/159/14 126/174/14 127/177/14
f 36/137/1 34/135/1 113/175/1 114/178/1
f 10/111/20 8/109/20 100/176/20 101/179/20
f 64/163/15 62/161/15 127/177/15 128/180/15
f 38/139/2 36/137/2 114/178/2 115/181/2
f 12/113/21 10/111/21 101/179/21 102/182/21
f 2/103/16 64/163/16 128/180/16 97/169/16
f 40/141/3 38/139/3 115/181/3 116/183/3
f 14/115/22 12/113/22 102/182/22 103/184/22
f 42/143/4 40/141/4 116/183/4 117/185/4
f 16/117/23 14/115/23 103/184/23 104/186/23
f 44/145/5 42/143/5 117/185/5 118/187/5
f 18/119/24 16/117/24 104/186/24 105/188/24
f 46/147/6 44/145/6 118/187/6 119/189/6
f 20/121/25 18/119/25 105/188/25 106/190/25
f 48/149/7 46/147/7 119/189/7 120/191/7
f 22/123/26 20/121/26 106/190/26 107/192/26
f 50/151/8 48/149/8 120/191/8 121/193/8
f 24/125/27 22/123/27 107/192/27 108/194/27
f 52/64/9 50/151/9 121/193/9 122/65/9
f 26/127/28 24/125/28 108/194/28 109/165/28
