# Blender v2.91.0 OBJ File: ''
# www.blender.org
mtllib tri.mtl
o Cube
v 1.301157 1.000000 1.137161
v 1.000000 -1.000000 1.000000
v -1.000000 1.000000 -1.000000
v -1.000000 -1.000000 -1.000000
v -1.000000 1.000000 1.000000
v -0.902524 -1.000000 0.858674
vt 0.625000 0.750000
vt 0.875000 0.500000
vt 0.875000 0.750000
vt 0.375000 0.750000
vt 0.625000 1.000000
vt 0.375000 1.000000
vt 0.375000 0.000000
vt 0.625000 0.000000
vt 0.625000 0.250000
vt 0.375000 0.250000
vt 0.125000 0.500000
vt 0.125000 0.750000
vn 0.0000 1.0000 0.0000
vn -0.0660 -0.0660 0.9956
vn -0.9994 -0.0252 0.0252
vn 0.0000 -1.0000 0.0000
vn 0.6930 -0.0275 -0.7204
usemtl Material
s off
f 1/1/1 3/2/1 5/3/1
f 2/4/2 1/1/2 5/5/2 6/6/2
f 6/7/3 5/8/3 3/9/3 4/10/3
f 4/11/4 2/4/4 6/12/4
f 4/10/5 3/9/5 1/1/5 2/4/5
