# Blender v2.91.0 OBJ File: ''
# www.blender.org
mtllib tri1.mtl
o Cube
v 0.872103 0.090052 1.137161
v 1.000000 -1.000000 1.000000
v -0.681829 0.057930 0.089570
v -1.000000 -1.000000 -0.850198
v -0.024151 0.323681 0.863379
v -1.192021 -0.481703 0.858674
vt 0.625000 0.750000
vt 0.875000 0.500000
vt 0.875000 0.750000
vt 0.375000 0.750000
vt 0.625000 1.000000
vt 0.375000 1.000000
vt 0.375000 0.000000
vt 0.625000 0.000000
vt 0.625000 0.250000
vt 0.375000 0.250000
vt 0.125000 0.500000
vt 0.125000 0.750000
vn 0.3654 0.7400 -0.5647
vn -0.1334 -0.0010 0.9911
vn -0.7658 0.6404 -0.0586
vn -0.2380 -0.9366 0.2573
vn 0.5978 0.3164 -0.7366
usemtl Material
s off
f 1/1/1 3/2/1 5/3/1
f 2/4/2 1/1/2 5/5/2 6/6/2
f 6/7/3 5/8/3 3/9/3 4/10/3
f 4/11/4 2/4/4 6/12/4
f 4/10/5 3/9/5 1/1/5 2/4/5
